<svg width="18" height="18" viewBox="0 0 18 18" fill="none" xmlns="http://www.w3.org/2000/svg">
<path d="M16.8754 1.13751C16.6419 0.903441 16.3248 0.771899 15.9941 0.771899C15.6635 0.771899 15.3464 0.903441 15.1129 1.13751L9.00039 7.23751L2.88789 1.12501C2.65435 0.890941 2.33729 0.759399 2.00664 0.759399C1.67599 0.759399 1.35893 0.890941 1.12539 1.12501C0.637891 1.61251 0.637891 2.40001 1.12539 2.88751L7.23789 9.00001L1.12539 15.1125C0.637891 15.6 0.637891 16.3875 1.12539 16.875C1.61289 17.3625 2.40039 17.3625 2.88789 16.875L9.00039 10.7625L15.1129 16.875C15.6004 17.3625 16.3879 17.3625 16.8754 16.875C17.3629 16.3875 17.3629 15.6 16.8754 15.1125L10.7629 9.00001L16.8754 2.88751C17.3504 2.41251 17.3504 1.61251 16.8754 1.13751Z" fill="white"/>
</svg>
