<svg width="24" height="16" viewBox="0 0 24 16" fill="none" xmlns="http://www.w3.org/2000/svg">
<path fill-rule="evenodd" clip-rule="evenodd" d="M1.33333 2.66667C0.6 2.66667 0 2.06667 0 1.33333C0 0.6 0.6 0 1.33333 0H22.6667C23.4 0 24 0.6 24 1.33333C24 2.06667 23.4 2.66667 22.6667 2.66667H1.33333ZM1.33333 9.33264H22.6667C23.4 9.33264 24 8.73264 24 7.9993C24 7.26597 23.4 6.66597 22.6667 6.66597H1.33333C0.6 6.66597 0 7.26597 0 7.9993C0 8.73264 0.6 9.33264 1.33333 9.33264ZM1.33333 15.9999H22.6667C23.4 15.9999 24 15.3999 24 14.6666C24 13.9333 23.4 13.3333 22.6667 13.3333H1.33333C0.6 13.3333 0 13.9333 0 14.6666C0 15.3999 0.6 15.9999 1.33333 15.9999Z" fill="white"/>
</svg>
